<svg width="28" height="28" viewBox="0 0 28 28" xmlns="http://www.w3.org/2000/svg">
    <g fill="none" fill-rule="evenodd">
        <path d="M0 0h28v26.133H0z"/>
        <path d="m13.438 2.248-10 6.788A1 1 0 0 0 3 9.863v13.404a1 1 0 0 0 1 1h20a1 1 0 0 0 1-1V9.863a1 1 0 0 0-.438-.827l-10-6.788a1 1 0 0 0-1.124 0z" fill="#000"/>
        <path d="M19.2 9.828c.02.028.03.047.05.065.07.103.14.224.19.374.22.616.74 2.081 1.56 4.377v6.067c0 .42-.35.756-.78.756h-.44a.76.76 0 0 1-.78-.756V19.6H9v1.11c0 .42-.35.757-.78.757h-.44A.767.767 0 0 1 7 20.71v-6.067c.82-2.305 1.34-3.761 1.56-4.377.05-.15.12-.271.19-.374l.05-.056c.353-.459.844-.5.912-.503h8.568s.54.009.92.494zm-1.736 5.895c-.638 0-1.155.45-1.155 1.005 0 .555.517 1.005 1.155 1.005s1.155-.45 1.155-1.005c0-.555-.517-1.005-1.155-1.005zm-6.928 0c-.638 0-1.155.45-1.155 1.005 0 .555.517 1.005 1.155 1.005s1.155-.45 1.155-1.005c0-.555-.517-1.005-1.155-1.005zm7.702-4.523H9.762L9 13.21h10l-.762-2.01z" fill="#111" fill-rule="nonzero"/>
    </g>
</svg>
