<svg width="28" height="28" viewBox="0 0 28 28" xmlns="http://www.w3.org/2000/svg">
    <g fill="none" fill-rule="evenodd">
        <path d="M0 0h28v28H0z"/>
        <path fill="#111" d="m5.833 3.5 2.06 18.53h12.215L22.167 3.5H24.5l-2.333 21H5.833L3.5 3.5z"/>
        <g fill="#000">
            <path d="M10.5 18.667a1.167 1.167 0 1 1 0 2.333 1.167 1.167 0 0 1 0-2.333zM11.667 15.167a1.167 1.167 0 1 1 0 2.333 1.167 1.167 0 0 1 0-2.333zM14 11.667A1.167 1.167 0 1 1 14 14a1.167 1.167 0 0 1 0-2.333zM16.333 15.167a1.167 1.167 0 1 1 0 2.333 1.167 1.167 0 0 1 0-2.333zM14 18.667A1.167 1.167 0 1 1 14 21a1.167 1.167 0 0 1 0-2.333z"/>
            <path d="M17.5 18.667a1.167 1.167 0 1 1 0 2.333 1.167 1.167 0 0 1 0-2.333z" fill-opacity=".9"/>
        </g>
    </g>
</svg>
